<?xml version="1.0" encoding="UTF-8"?><svg id="Layer_1" xmlns="http://www.w3.org/2000/svg" viewBox="0 0 103.81 24"><defs><style>.cls-1{fill:#fff;}.cls-2{fill:#a5ff4b;}</style></defs><g id="Layer_1-2"><polygon class="cls-2" points="15.05 14.09 15.63 10.68 6.25 10.68 7.26 4.55 17.63 4.55 18.2 1.12 10.98 1.12 3.75 1.12 1.59 14.09 15.05 14.09"/><polygon class="cls-2" points=".93 18.09 0 23.69 4.09 23.69 5.02 18.09 .93 18.09"/><path class="cls-2" d="m23.09,4.34c.63,0,1.19-.21,1.67-.64.49-.43.76-.94.8-1.53.05-.6-.13-1.11-.55-1.53-.41-.43-.94-.64-1.58-.64s-1.19.21-1.69.64c-.48.43-.75.94-.8,1.53s.13,1.11.55,1.53c.42.43.95.64,1.59.64Z"/><polygon class="cls-2" points="18.63 18.09 17.7 23.69 21.68 23.69 22.62 18.09 18.63 18.09"/><polygon class="cls-2" points="23.28 14.09 24.51 6.77 20.52 6.77 19.3 14.09 23.28 14.09"/><polygon class="cls-2" points="33.4 6.77 34.07 2.71 30.08 2.71 29.41 6.76 29.41 6.76 29.41 6.77 27.02 6.77 26.51 9.85 28.9 9.85 28.9 9.85 28.9 9.85 28.2 14.09 32.18 14.09 32.88 9.85 32.88 9.85 32.88 9.85 36.23 9.85 36.75 6.77 33.4 6.77"/><path class="cls-2" d="m33.61,20.51c-.21.04-.44.06-.68.06-.33,0-.63-.05-.89-.15-.26-.1-.44-.29-.56-.57-.11-.29-.12-.7-.04-1.23l.09-.51h-3.97l-.19,1.17c-.18,1.06-.11,1.94.23,2.64.35.7.89,1.22,1.63,1.55.75.33,1.63.48,2.64.46.57-.01,1.05-.07,1.45-.15.41-.09.74-.17.98-.24l-.18-3.12c-.12.02-.29.06-.51.1Z"/><path class="cls-1" d="m42.35,14.09c.03-.46.07-.93.16-1.44.29-1.73.82-3.21,1.58-4.42.76-1.22,1.68-2.15,2.77-2.79,1.09-.64,2.26-.96,3.53-.96.66,0,1.26.1,1.81.29.54.18,1.01.46,1.41.83.4.37.71.82.93,1.34.22.52.33,1.12.33,1.8h4.06c.04-1.26-.14-2.37-.54-3.35-.39-.98-.96-1.81-1.71-2.49-.75-.68-1.65-1.2-2.7-1.55-1.04-.35-2.2-.53-3.48-.53-1.93,0-3.74.45-5.41,1.34-1.67.89-3.08,2.18-4.24,3.87-1.15,1.69-1.93,3.74-2.34,6.14-.11.67-.17,1.31-.21,1.92h4.07Z"/><path class="cls-1" d="m52.47,18.09c-.39.45-.83.85-1.33,1.17-.55.35-1.15.62-1.81.8-.65.18-1.34.26-2.05.26-1.17,0-2.16-.29-2.98-.86-.5-.35-.89-.82-1.21-1.38h-4.4c.04.14.07.3.12.43.62,1.76,1.65,3.12,3.09,4.07,1.44.94,3.17,1.41,5.19,1.41,1.32,0,2.54-.2,3.68-.61,1.14-.4,2.17-.96,3.09-1.67.92-.72,1.7-1.55,2.36-2.49.25-.37.48-.75.69-1.14h-4.43Z"/><polygon class="cls-1" points="65.29 14.09 67.44 1.12 63.45 1.12 61.3 14.09 65.29 14.09"/><polygon class="cls-1" points="60.63 18.09 59.7 23.69 63.69 23.69 64.62 18.09 60.63 18.09"/><polygon class="cls-1" points="73.07 14.09 74.29 6.77 70.31 6.77 69.08 14.09 73.07 14.09"/><polygon class="cls-1" points="83.86 14.09 85.08 6.77 81.09 6.77 79.87 14.09 83.86 14.09"/><path class="cls-1" d="m78.96,18.09c-.12.23-.24.44-.39.63-.45.57-.97.99-1.58,1.28-.59.29-1.19.43-1.77.43-.95,0-1.67-.32-2.16-.95-.29-.38-.44-.85-.5-1.39h-4.13c-.13,1.11-.06,2.09.21,2.91.32.95.87,1.67,1.63,2.17.76.49,1.7.74,2.81.74,1.27,0,2.39-.3,3.37-.9.98-.6,1.74-1.38,2.27-2.33h.18l-.51,3.01h3.87l.93-5.6h-4.23Z"/><path class="cls-1" d="m98.61,18.09c-.44.81-.99,1.45-1.66,1.92-.67.47-1.44.71-2.31.71s-1.54-.23-2.06-.68c-.51-.46-.86-1.11-1.04-1.93,0,0,0-.01,0-.02h-4.38l-.93,5.6h3.92l.44-2.67h.25c.14.41.36.85.67,1.31.31.46.75.84,1.33,1.17.59.32,1.37.48,2.34.48,1.33,0,2.58-.34,3.75-1.02,1.17-.68,2.16-1.67,2.99-2.98.36-.58.67-1.21.93-1.9h-4.24Z"/><path class="cls-1" d="m91.82,14.09c.17-.62.38-1.21.66-1.71.44-.81,1-1.44,1.66-1.88.67-.45,1.43-.67,2.29-.67s1.58.23,2.09.69c.52.46.86,1.1,1.02,1.92.1.51.14,1.06.11,1.66h4.1c.12-1.38.03-2.58-.28-3.6-.4-1.3-1.08-2.28-2.02-2.94-.94-.67-2.06-1-3.37-1-.99,0-1.84.17-2.53.51-.7.33-1.27.73-1.73,1.2-.45.46-.8.9-1.07,1.31h-.18l1.39-8.44h-3.99l-2.15,12.97h4Z"/></g></svg>