<?xml version="1.0" encoding="UTF-8"?><svg id="Layer_2" xmlns="http://www.w3.org/2000/svg" viewBox="0 0 18 19"><defs><style>.cls-3{fill:#a5ff4b;}</style></defs><g id="Layer_3-4"><path class="cls-3" d="m0,4v3c1.1,0,2,.9,2,2v4c0,2.83,0,4.24.88,5.12.88.88,2.29.88,5.12.88h2c2.83,0,4.24,0,5.12-.88.88-.88.88-2.29.88-5.12v-4c0-1.1.9-2,2-2v-3H0Zm7.5,10c0,.55-.45,1-1,1s-1-.45-1-1v-5c0-.55.45-1,1-1s1,.45,1,1v5Zm5,0c0,.55-.45,1-1,1s-1-.45-1-1v-5c0-.55.45-1,1-1s1,.45,1,1v5Z"/><path class="cls-3" d="m7.07,2.37c.22,0,.43-.07.61-.21.04-.01.13-.04.29-.08.58-.11,1.48-.11,2.06,0,.16.03.25.06.29.08.4.31.99.27,1.34-.11.38-.4.36-1.04-.05-1.41-.26-.25-.65-.41-1.21-.52-.83-.16-1.97-.16-2.81,0-.56.11-.94.27-1.21.52-.4.38-.43,1.01-.05,1.41.2.21.46.32.73.32Z"/></g></svg>