<?xml version="1.0" encoding="UTF-8"?><svg id="Layer_3" xmlns="http://www.w3.org/2000/svg" viewBox="0 0 20 21"><defs><style>.cls-5{fill:#fff;}</style></defs><g id="Layer_5-6"><path class="cls-5" d="m9.51,21c-.68,0-1.37-.07-2.05-.2-2.04-.41-3.9-1.4-5.38-2.87-.2-.2-.2-.51,0-.71s.51-.2.71,0c1.33,1.33,3.02,2.23,4.87,2.6,1.85.37,3.75.18,5.49-.54,1.74-.72,3.22-1.93,4.26-3.5,1.05-1.57,1.6-3.39,1.6-5.28s-.55-3.71-1.6-5.28c-1.05-1.57-2.52-2.78-4.26-3.5-1.74-.72-3.64-.91-5.49-.54-1.85.37-3.53,1.27-4.87,2.6-.2.2-.51.2-.71,0s-.2-.51,0-.71C3.55,1.6,5.41.61,7.45.2,9.5-.2,11.59,0,13.52.8c1.92.8,3.55,2.13,4.71,3.87,1.16,1.73,1.77,3.75,1.77,5.83s-.61,4.1-1.77,5.83c-1.16,1.73-2.79,3.07-4.71,3.87-1.28.53-2.64.8-4.01.8Z"/><path class="cls-5" d="m12.89,10.19l-4-5-.78.62,3.35,4.19H.5c-.28,0-.5.22-.5.5s.22.5.5.5h10.96l-3.35,4.19.78.62,4-5-.39-.31h0s.39.31.39.31l.25-.31-.25-.31Z"/></g></svg>