<?xml version="1.0" encoding="UTF-8"?><svg id="Layer_6" xmlns="http://www.w3.org/2000/svg" viewBox="0 0 17.09 17.09"><defs><style>.cls-7{fill:#a5ff4b;fill-rule:evenodd;}</style></defs><g id="Layer_7-8"><path class="cls-7" d="m14.12,6.97l1.8-1.8c.55-.55.82-.82.96-1.11.28-.56.28-1.22,0-1.78-.15-.29-.42-.57-.96-1.11-.55-.55-.82-.82-1.11-.96-.56-.28-1.22-.28-1.78,0-.29.15-.57.42-1.11.96l-1.82,1.82c.96,1.65,2.35,3.03,4.02,3.98Zm-5.48-2.52L1.77,11.32c-.43.43-.64.64-.78.9-.14.26-.2.56-.32,1.15l-.62,3.08c-.07.33-.1.5,0,.59.09.09.26.06.59,0l3.08-.62c.59-.12.88-.18,1.15-.32.26-.14.47-.35.9-.78l6.89-6.89c-1.62-1.02-2.99-2.38-4.02-3.98Z"/></g></svg>