<?xml version="1.0" encoding="UTF-8"?><svg id="Layer_8" xmlns="http://www.w3.org/2000/svg" viewBox="0 0 17 13"><defs><style>.cls-9{fill:#fff;}.cls-10{fill:#a5ff4b;}</style></defs><g id="Layer_9-10"><path class="cls-10" d="m8.5,7.76c-.38,0-.77-.09-1.12-.26L.28,3.95l.45-.89,7.11,3.55c.42.21.92.21,1.34,0l7.11-3.55.45.89-7.11,3.55c-.35.17-.73.26-1.12.26Z"/><path class="cls-9" d="m14.5,13H2.5c-1.38,0-2.5-1.12-2.5-2.5V2.5C0,1.12,1.12,0,2.5,0h12c1.38,0,2.5,1.12,2.5,2.5v8c0,1.38-1.12,2.5-2.5,2.5ZM2.5,1c-.83,0-1.5.67-1.5,1.5v8c0,.83.67,1.5,1.5,1.5h12c.83,0,1.5-.67,1.5-1.5V2.5c0-.83-.67-1.5-1.5-1.5H2.5Z"/></g></svg>