<?xml version="1.0" encoding="UTF-8"?><svg id="Layer_7" xmlns="http://www.w3.org/2000/svg" viewBox="0 0 15.09 16"><defs><style>.cls-8{fill:#fff;}</style></defs><g id="Layer_1-2"><path class="cls-1" d="m14.63,16c-.19,0-.36-.12-.43-.3-.38-1.06-1.24-2.02-2.42-2.7-2.41-1.39-6.06-1.39-8.48,0-1.18.68-2.04,1.64-2.42,2.7-.09.24-.35.36-.59.28-.24-.09-.36-.35-.28-.59.45-1.27,1.46-2.4,2.82-3.18,2.69-1.55,6.7-1.55,9.39,0,1.37.79,2.37,1.92,2.82,3.18.09.24-.04.5-.28.59-.05.02-.1.03-.15.03Z"/><path class="cls-8" d="m7.55,8.25c-2.28,0-4.13-1.85-4.13-4.13S5.27,0,7.55,0s4.13,1.85,4.13,4.13-1.85,4.13-4.13,4.13Zm0-7.34c-1.77,0-3.21,1.44-3.21,3.21s1.44,3.21,3.21,3.21,3.21-1.44,3.21-3.21-1.44-3.21-3.21-3.21Z"/></g></svg>